<svg xmlns="http://www.w3.org/2000/svg" width="3794" height="3794" viewBox="0 0 3794 3794">
  <g id="Group_4" data-name="Group 4" transform="translate(-141 -1321)">
    <rect id="Rectangle_1" data-name="Rectangle 1" width="3794" height="3794" transform="translate(141 1321)" fill="#060c23"/>
    <ellipse id="Ellipse_13" data-name="Ellipse 13" cx="1399.5" cy="1399.5" rx="1399.5" ry="1399.5" transform="translate(646.843 1818.5)" fill="#00bfd6"/>
    <ellipse id="Ellipse_16" data-name="Ellipse 16" cx="116.625" cy="116.625" rx="116.625" ry="116.625" transform="translate(368.24 2945.875)" fill="#00bfd6"/>
    <ellipse id="Ellipse_17" data-name="Ellipse 17" cx="74.51" cy="74.51" rx="74.51" ry="74.51" transform="translate(368.24 2699.667)" fill="#00bfd6"/>
    <g id="Group_3" data-name="Group 3" transform="translate(1037.489 2296.759)">
      <path id="Path_47" data-name="Path 47" d="M652.2,626.872,631.393,790.786l-30.62-186.2c-147.154-56.468-319.212-67.434-319.212-67.434s-37.969,355.626,87.392,504.328,257.532,126.1,366.58,34.164,153.675-218.376,28.314-367.077C735.944,675.471,696.557,648.628,652.2,626.872Z" transform="translate(-273.065 615.881)" fill="#f2f2f2"/>
      <path id="Path_48" data-name="Path 48" d="M612.059,824.505l6.179,7.329c71.39,85.566,113.063,164.154,124.33,234.731.182,1.026.3,2.046.479,3.072l-4.778.739-4.6.652c-11.334-76.914-60.5-157.691-122.749-232.34-1.983-2.426-4-4.887-6.082-7.288-26.631-31.367-55.381-61.569-84.528-89.884-2.237-2.211-4.54-4.428-6.844-6.645C474.8,697.7,435.778,663.926,400.923,635.394c-2.454-2.028-4.945-4.025-7.405-5.986-59.193-48.051-105.3-80.134-115.577-87.173-1.238-.88-1.94-1.344-2.1-1.458l2.621-3.886.006-.067,2.657-3.917c.159.115,2.519,1.663,6.778,4.653,16,11.1,58.968,41.6,112.251,84.7,2.393,1.955,4.884,3.952,7.338,5.98,28.309,23.124,59.232,49.57,90.388,78.426q11.757,10.853,22.911,21.654c2.34,2.186,4.643,4.4,6.88,6.615Q574.943,780.842,612.059,824.505Z" transform="translate(-273.73 606.945)" fill="#fff"/>
      <path id="Path_49" data-name="Path 49" d="M401.589,603.96c-2.156,2.376-4.348,4.782-6.637,7.147a261.863,261.863,0,0,1-19.578,18.305,254.683,254.683,0,0,1-100.212,51.956c.1,3.208.195,6.416.286,9.691A264.118,264.118,0,0,0,381.492,636.67a270.875,270.875,0,0,0,20.865-19.577c2.253-2.334,4.445-4.741,6.57-7.153a261.9,261.9,0,0,0,43.1-66.317q-4.864-1.02-9.528-2.024A253.813,253.813,0,0,1,401.589,603.96Z" transform="translate(-275.162 625.247)" fill="#fff"/>
      <path id="Path_50" data-name="Path 50" d="M518.147,680.768q-3.572,3.384-7.328,6.55c-.731.679-1.53,1.352-2.292,1.994A256.035,256.035,0,0,1,277.1,740.837c.353,3.364.707,6.729,1.127,10.1a265.542,265.542,0,0,0,236.418-54.367c1.016-.857,2.032-1.713,3.018-2.606,2.509-2.177,4.952-4.361,7.364-6.58A264.138,264.138,0,0,0,600.8,558.945c-2.966-1.162-5.932-2.324-8.934-3.455a254.278,254.278,0,0,1-73.718,125.277Z" transform="translate(-271.082 654.499)" fill="#fff"/>
      <path id="Path_51" data-name="Path 51" d="M602.737,746.675c-2.356,2.359-4.774,4.645-7.222,6.9-2.63,2.4-5.29,4.77-8.011,7.064A256.728,256.728,0,0,1,280.27,778.053c.845,4.316,1.659,8.6,2.577,12.85a266.129,266.129,0,0,0,310.773-23.01c2.721-2.294,5.412-4.625,7.975-7.034,2.515-2.245,4.933-4.531,7.319-6.854a265.351,265.351,0,0,0,78.8-178.228c-3.026-2.043-6.129-3.957-9.264-5.908A255.9,255.9,0,0,1,602.737,746.675Z" transform="translate(-264.407 684.775)" fill="#fff"/>
      <path id="Path_52" data-name="Path 52" d="M1241.626,583.041V318.816A152.927,152.927,0,0,0,1088.7,165.89H528.9A152.927,152.927,0,0,0,375.977,318.816V494.3h-9.836v61.83h9.836v65.951h-9.836v94.806h9.836V758.1h-9.836V852.91h9.836v915.463A152.925,152.925,0,0,0,528.9,1921.3h559.8a152.926,152.926,0,0,0,152.927-152.926V771.12h9.645V583.04Z" transform="translate(-83.586 -165.89)" fill="#060c23"/>
      <path id="Path_53" data-name="Path 53" d="M1059.591,178.7H986.52a54.258,54.258,0,0,1-50.235,74.75h-320.7a54.258,54.258,0,0,1-50.235-74.75H497.1A114.2,114.2,0,0,0,382.9,292.9V1740.335a114.2,114.2,0,0,0,114.2,114.2h562.492a114.2,114.2,0,0,0,114.2-114.2h0V292.9A114.2,114.2,0,0,0,1059.591,178.7Z" transform="translate(-48.305 -138.915)" fill="#fff"/>
      <path id="Path_54" data-name="Path 54" d="M1016.429,524.481H425.641a15.547,15.547,0,0,1-15.529-15.529V269.235a15.547,15.547,0,0,1,15.529-15.529h590.788a15.546,15.546,0,0,1,15.529,15.529V508.953a15.546,15.546,0,0,1-15.529,15.529Z" transform="translate(9.004 19.026)" fill="#090f26"/>
      <path id="Path_55" data-name="Path 55" d="M923.087,400.581H444.806a17.081,17.081,0,1,1,0-34.163h478.28a17.081,17.081,0,0,1,0,34.163Z" transform="translate(46.092 256.366)" fill="#090f26"/>
      <path id="Path_56" data-name="Path 56" d="M924.14,430.686H445.859a18.634,18.634,0,1,1,0-37.268H924.14a18.634,18.634,0,1,1,0,37.269Z" transform="translate(45.039 313.22)" fill="#e4e4e4"/>
      <path id="Path_57" data-name="Path 57" d="M924.14,458.187H445.859a18.634,18.634,0,1,1,0-37.269H924.14a18.634,18.634,0,1,1,0,37.269Z" transform="translate(45.039 371.127)" fill="#e4e4e4"/>
      <path id="Path_58" data-name="Path 58" d="M1016.429,755.481H425.641a15.547,15.547,0,0,1-15.529-15.529V500.235a15.547,15.547,0,0,1,15.529-15.529h590.788a15.546,15.546,0,0,1,15.529,15.529V739.953A15.547,15.547,0,0,1,1016.429,755.481Z" transform="translate(9.004 505.447)" fill="#e4e4e4"/>
      <path id="Path_59" data-name="Path 59" d="M924.14,634.187H445.859a18.634,18.634,0,1,1,0-37.268H924.14a18.634,18.634,0,1,1,0,37.269Z" transform="translate(45.039 741.733)" fill="#e4e4e4"/>
      <path id="Path_60" data-name="Path 60" d="M924.14,661.687H445.859a18.634,18.634,0,1,1,0-37.269H924.14a18.634,18.634,0,1,1,0,37.269Z" transform="translate(45.039 799.641)" fill="#e4e4e4"/>
      <path id="Path_61" data-name="Path 61" d="M924.14,689.187H445.859a18.634,18.634,0,1,1,0-37.269H924.14a18.634,18.634,0,1,1,0,37.269Z" transform="translate(45.039 857.548)" fill="#e4e4e4"/>
      <path id="Path_62" data-name="Path 62" d="M915.5,417.1c-6.008-44.069-13.544-91.384-44.626-123.2a104.524,104.524,0,0,0-151.019,1.563c-22.625,24.137-32.617,58.029-33.532,91.1s6.451,65.775,14.622,97.834A301.536,301.536,0,0,0,826.8,459.628a202.793,202.793,0,0,1,30.174-11.846c10.485-2.669,17.959,4.047,27.712,8.729l5.354-10.251c4.383,8.156,17.953,5.738,22.876-2.1S916.755,426.271,915.5,417.1Z" transform="translate(590.47 37.385)" fill="#2f2e41"/>
      <path id="Path_63" data-name="Path 63" d="M699.141,618.063l-31.759,21-96.125-112.5,46.871-31Z" transform="translate(1202.906 1043.518)" fill="#9e616a"/>
      <path id="Path_64" data-name="Path 64" d="M972.151,736.987l-102.4,67.723-.857-1.3a47.788,47.788,0,0,1,13.5-66.218l0,0,62.544-41.363Z" transform="translate(958.355 950.021)" fill="#090f26"/>
      <path id="Path_65" data-name="Path 65" d="M518.526,652.691H480.449L462.337,505.828l56.195,0Z" transform="translate(973.551 1065.131)" fill="#9e616a"/>
      <path id="Path_66" data-name="Path 66" d="M841.959,764.345l-122.772,0v-1.553A47.788,47.788,0,0,1,766.97,715h.006l74.984,0Z" transform="translate(659.829 990.385)" fill="#090f26"/>
      <path id="Path_67" data-name="Path 67" d="M803.6,484.828,659.84,382.136A27.943,27.943,0,1,0,626.275,406.2C644.245,421.287,775.5,551.821,794.29,544.936c19.074-6.988,102.468-19.638,102.468-19.638l2.322-79.181Z" transform="translate(417.573 223.732)" fill="#9e616a"/>
      <path id="Path_68" data-name="Path 68" d="M704.733,467.706l1.357,180.685S737.2,916.107,748.676,961.332s58.051,254.5,58.051,254.5l75.714-12.214L833.681,930.01l14.738-226.77,84.986,227.27,215.8,225.578,54.692-44.13-187.835-276.04L958.69,609.787s7.136-116.962-57.148-162Z" transform="translate(629.392 427.698)" fill="#060c23"/>
      <ellipse id="Ellipse_18" data-name="Ellipse 18" cx="82.987" cy="82.987" rx="82.987" ry="82.987" transform="translate(1294.628 332.108)" fill="#9e616a"/>
      <rect id="Rectangle_7" data-name="Rectangle 7" width="75.443" height="98.076" transform="translate(1368.364 993.416) rotate(-65.867)" fill="#2f2e41"/>
      <path id="Path_69" data-name="Path 69" d="M593.233,362.657" transform="translate(394.605 248.446)" fill="#6c63ff"/>
      <path id="Path_70" data-name="Path 70" d="M898.8,385.666c-9.78-19.463-14.532-43.508-35.381-49.818-14.079-4.261-71.023,2.125-83.854,9.317-21.343,11.964-2,34.384-14.594,55.364l-41.065,68.422C714.5,484.63,704.99,500.533,699.9,518.1s-5.333,37.278,3.335,53.38c7.758,14.412,21.811,24.633,29.614,39.021,8.113,14.963-6.451,81.778-14,97.033l3.625,1.674a817.086,817.086,0,0,0,150.466-5.063c12.383-1.568,25.241-3.617,35.446-10.8,15.031-10.588,20.973-29.8,24.687-47.807A402.739,402.739,0,0,0,898.8,385.666Z" transform="translate(611.73 189.106)" fill="#e4e4e4"/>
      <path id="Path_71" data-name="Path 71" d="M749.667,551.545c22.483-22.1,45.081-44.324,63.589-69.842s32.9-54.726,36.919-85.992a63.7,63.7,0,0,0-1.992-29.877c-3.449-9.469-11.085-17.873-20.928-20.034-15.752-3.458-30.072,9.113-41.313,20.677l-99.429,102.29,63.335,83.368Z" transform="translate(591.027 211.72)" fill="#e4e4e4"/>
      <path id="Path_72" data-name="Path 72" d="M919.7,488.179c-6.988-19.074-19.638-102.467-19.638-102.467L820.88,383.39l38.712,95.479L753.954,626.752s.2.325.551.9a27.937,27.937,0,1,0,23.432,29.688,1.929,1.929,0,0,0,2.422-.416C792.113,642.18,926.687,507.255,919.7,488.179Z" transform="translate(666.052 292.104)" fill="#9e616a"/>
      <path id="Path_73" data-name="Path 73" d="M885.585,522.96C878.317,492.286,871,461.445,858.743,432.4s-29.794-56.478-54.465-76.1a63.7,63.7,0,0,0-26.594-13.761c-9.887-1.951-21.03.232-27.974,7.536-11.113,11.687-7.769,30.447-3.693,46.051l36.053,138.02L886.183,523.11Z" transform="translate(708.215 204.657)" fill="#e4e4e4"/>
      <path id="Path_74" data-name="Path 74" d="M879.153,381.983c-2.595-20.075-5.3-40.319-11.4-59.222s-15.921-36.609-30.015-47.317c-22.315-16.954-51.207-13.684-76.226-3.932-19.349,7.542-38.236,19.005-51.88,37.435S688.323,353.673,693.4,377.77l80.064-22.282-2.922,2.432c17.319,9.759,30.472,29.95,34.4,52.812a89.191,89.191,0,0,1-14.09,65.337l54.6-22.816c11.235-4.694,23.259-10.1,29.92-22.145C883.1,417.146,881.308,398.642,879.153,381.983Z" transform="translate(602.208 39.569)" fill="#2f2e41"/>
      <path id="Path_75" data-name="Path 75" d="M679.54,358.245l-53.384,80.121a13.976,13.976,0,0,1-24.507-2.343,12.821,12.821,0,0,1-.834-2.66,14.011,14.011,0,0,1,2.08-10.5l53.385-80.121a13.976,13.976,0,1,1,23.261,15.5Z" transform="translate(410.004 193.406)" fill="#6c63ff"/>
      <path id="Path_76" data-name="Path 76" d="M639.045,377.74l-10.806,16.122-19.12,16.854a7.612,7.612,0,0,1-12.243-8.159l8.369-24.5,10.539-15.818Z" transform="translate(401.419 247.571)" fill="#3f3d56"/>
      <path id="Path_77" data-name="Path 77" d="M651.175,331.275l-26.753,23.581a7.616,7.616,0,0,0,.813,12.053l5.062,3.373L615.659,392.25a3.106,3.106,0,1,0,5.169,3.444l14.638-21.969,5.062,3.373a7.6,7.6,0,0,0,11.437-3.891l11.46-33.771a7.617,7.617,0,0,0-12.249-8.161Z" transform="translate(440.729 178.359)" fill="#3f3d56"/>
      <path id="Path_78" data-name="Path 78" d="M2289.172,738.014H278.86a3.7,3.7,0,1,1,0-7.4H2289.172a3.7,3.7,0,0,1,0,7.4Z" transform="translate(-275.162 1023.267)" fill="#3f3d56"/>
      <path id="Path_79" data-name="Path 79" d="M578.041,195.841H494.186a6.211,6.211,0,0,1,0-12.423h83.854a6.211,6.211,0,0,1,0,12.423Z" transform="translate(172.961 -128.98)" fill="#fff"/>
      <circle id="Ellipse_19" data-name="Ellipse 19" cx="6.211" cy="6.211" r="6.211" transform="translate(786.719 54.438)" fill="#fff"/>
    </g>
  </g>
</svg>
