<svg xmlns="http://www.w3.org/2000/svg" width="3794" height="2514" viewBox="0 0 3794 2514">
  <g id="Group_4" data-name="Group 4" transform="translate(-141 -1321)">
    <rect id="Rectangle_1" data-name="Rectangle 1" width="3794" height="2514" transform="translate(141 1321)" fill="#060c23"/>
    <circle id="Ellipse_13" data-name="Ellipse 13" cx="854.171" cy="854.171" r="854.171" transform="translate(1208.453 1773.232)" fill="#00bfd6"/>
    <circle id="Ellipse_14" data-name="Ellipse 14" cx="79.09" cy="79.09" r="79.09" transform="translate(2707.207 3165.215)" fill="#00bfd6"/>
    <circle id="Ellipse_15" data-name="Ellipse 15" cx="33.613" cy="33.613" r="33.613" transform="translate(2865.387 3014.944)" fill="#00bfd6"/>
    <circle id="Ellipse_16" data-name="Ellipse 16" cx="71.181" cy="71.181" r="71.181" transform="translate(1038.409 2461.314)" fill="#00bfd6"/>
    <circle id="Ellipse_17" data-name="Ellipse 17" cx="45.477" cy="45.477" r="45.477" transform="translate(1038.409 2311.044)" fill="#00bfd6"/>
    <g id="Group_3" data-name="Group 3" transform="translate(1446.88 2065.133)">
      <path id="Path_47" data-name="Path 47" d="M505.672,591.911l-12.7,100.043L474.284,578.309c-89.814-34.465-194.828-41.158-194.828-41.158S256.282,754.2,332.795,844.963s157.182,76.961,223.739,20.852,93.794-133.283,17.281-224.042C556.784,621.573,532.744,605.19,505.672,591.911Z" transform="translate(-274.271 166.591)" fill="#f2f2f2"/>
      <path id="Path_48" data-name="Path 48" d="M481.049,710.881l3.771,4.473c43.572,52.224,69.007,100.19,75.884,143.266.111.626.182,1.249.293,1.875l-2.916.451-2.809.4c-6.918-46.944-36.925-96.245-74.918-141.806-1.21-1.48-2.439-2.983-3.712-4.448-16.254-19.145-33.8-37.578-51.591-54.86-1.365-1.35-2.771-2.7-4.177-4.056-23.6-22.69-47.416-43.3-68.689-60.715-1.5-1.238-3.018-2.457-4.52-3.653C311.537,562.478,283.4,542.9,277.123,538.6c-.756-.537-1.184-.82-1.281-.89l1.6-2.372,0-.041,1.622-2.39c.1.07,1.538,1.015,4.137,2.84,9.763,6.772,35.991,25.389,68.511,51.7,1.461,1.193,2.981,2.412,4.479,3.65,17.278,14.114,36.152,30.254,55.167,47.867q7.175,6.624,13.984,13.216c1.428,1.334,2.834,2.688,4.2,4.037Q458.4,684.232,481.049,710.881Z" transform="translate(-274.553 162.79)" fill="#fff"/>
      <path id="Path_49" data-name="Path 49" d="M352.326,579.66c-1.316,1.45-2.654,2.919-4.051,4.362a159.815,159.815,0,0,1-11.949,11.172,155.442,155.442,0,0,1-61.163,31.711c.059,1.958.119,3.916.175,5.915a161.2,161.2,0,0,0,64.723-33.2,165.325,165.325,0,0,0,12.735-11.948c1.375-1.425,2.713-2.893,4.01-4.366a159.848,159.848,0,0,0,26.306-40.476q-2.969-.623-5.815-1.235A154.912,154.912,0,0,1,352.326,579.66Z" transform="translate(-275.162 170.574)" fill="#fff"/>
      <path id="Path_50" data-name="Path 50" d="M424.221,631.952q-2.18,2.065-4.472,4c-.446.414-.934.825-1.4,1.217A156.269,156.269,0,0,1,277.1,668.615c.216,2.053.431,4.107.688,6.164a162.071,162.071,0,0,0,144.3-33.182c.62-.523,1.24-1.046,1.842-1.591,1.531-1.329,3.022-2.662,4.494-4.016a161.214,161.214,0,0,0,46.247-78.39c-1.81-.709-3.621-1.418-5.453-2.109a155.2,155.2,0,0,1-44.993,76.462Z" transform="translate(-273.427 183.014)" fill="#fff"/>
      <path id="Path_51" data-name="Path 51" d="M477.084,677.781c-1.438,1.44-2.914,2.835-4.408,4.209-1.605,1.467-3.229,2.911-4.89,4.312A156.691,156.691,0,0,1,280.27,696.932c.516,2.634,1.013,5.246,1.573,7.843A162.429,162.429,0,0,0,471.52,690.73c1.661-1.4,3.3-2.823,4.867-4.293,1.535-1.37,3.011-2.765,4.467-4.183a161.954,161.954,0,0,0,48.1-108.78c-1.847-1.247-3.741-2.415-5.654-3.606A156.186,156.186,0,0,1,477.084,677.781Z" transform="translate(-270.588 195.891)" fill="#fff"/>
      <path id="Path_52" data-name="Path 52" d="M900.485,420.494V259.227a93.337,93.337,0,0,0-93.336-93.337H465.482a93.337,93.337,0,0,0-93.338,93.337v107.1h-6v37.738h6v40.253h-6v57.864h6v25.159h-6v57.864h6V1143.95a93.336,93.336,0,0,0,93.337,93.337H807.148a93.337,93.337,0,0,0,93.338-93.337V535.286h5.887V420.494Z" transform="translate(-193.687 -165.89)" fill="#060c23"/>
      <path id="Path_53" data-name="Path 53" d="M795.91,178.7h-44.6a33.116,33.116,0,0,1-30.661,45.623H524.914A33.116,33.116,0,0,1,494.253,178.7H452.6a69.7,69.7,0,0,0-69.7,69.7v883.426a69.7,69.7,0,0,0,69.7,69.7H795.91a69.7,69.7,0,0,0,69.7-69.7h0V248.4A69.7,69.7,0,0,0,795.91,178.7Z" transform="translate(-178.682 -154.418)" fill="#fff"/>
      <path id="Path_54" data-name="Path 54" d="M780.171,418.971H419.59a9.489,9.489,0,0,1-9.478-9.478V263.184a9.489,9.489,0,0,1,9.478-9.478H780.171a9.489,9.489,0,0,1,9.478,9.478v146.31a9.489,9.489,0,0,1-9.478,9.478Z" transform="translate(-154.309 -87.247)" fill="#090f26"/>
      <path id="Path_55" data-name="Path 55" d="M730.064,387.269H438.151a10.425,10.425,0,1,1,0-20.851H730.064a10.426,10.426,0,0,1,0,20.851Z" transform="translate(-138.536 13.692)" fill="#090f26"/>
      <path id="Path_56" data-name="Path 56" d="M730.512,416.164H438.6a11.373,11.373,0,1,1,0-22.746H730.512a11.373,11.373,0,0,1,0,22.747Z" transform="translate(-138.983 37.872)" fill="#e4e4e4"/>
      <path id="Path_57" data-name="Path 57" d="M730.512,443.665H438.6a11.373,11.373,0,1,1,0-22.747H730.512a11.373,11.373,0,1,1,0,22.747Z" transform="translate(-138.983 62.499)" fill="#e4e4e4"/>
      <path id="Path_58" data-name="Path 58" d="M780.171,649.971H419.59a9.489,9.489,0,0,1-9.478-9.478V494.184a9.489,9.489,0,0,1,9.478-9.478H780.171a9.489,9.489,0,0,1,9.478,9.478v146.31A9.489,9.489,0,0,1,780.171,649.971Z" transform="translate(-154.309 119.624)" fill="#e4e4e4"/>
      <path id="Path_59" data-name="Path 59" d="M730.512,619.665H438.6a11.373,11.373,0,1,1,0-22.746H730.512a11.373,11.373,0,1,1,0,22.747Z" transform="translate(-138.983 220.115)" fill="#e4e4e4"/>
      <path id="Path_60" data-name="Path 60" d="M730.512,647.165H438.6a11.373,11.373,0,1,1,0-22.747H730.512a11.373,11.373,0,1,1,0,22.747Z" transform="translate(-138.983 244.742)" fill="#e4e4e4"/>
      <path id="Path_61" data-name="Path 61" d="M730.512,674.665H438.6a11.373,11.373,0,1,1,0-22.746H730.512a11.373,11.373,0,1,1,0,22.746Z" transform="translate(-138.983 269.37)" fill="#e4e4e4"/>
      <path id="Path_62" data-name="Path 62" d="M826.172,356.827c-3.667-26.9-8.266-55.775-27.237-75.191a63.795,63.795,0,0,0-92.173.954c-13.809,14.732-19.908,35.418-20.466,55.6s3.937,40.145,8.924,59.712a184.04,184.04,0,0,0,76.81-15.119,123.773,123.773,0,0,1,18.416-7.23c6.4-1.629,10.961,2.47,16.914,5.328l3.268-6.257c2.675,4.978,10.958,3.5,13.962-1.284S826.936,362.427,826.172,356.827Z" transform="translate(92.984 -79.439)" fill="#2f2e41"/>
      <path id="Path_63" data-name="Path 63" d="M649.31,570.33l-19.384,12.82-58.669-68.666,28.607-18.919Z" transform="translate(511.586 443.799)" fill="#9e616a"/>
      <path id="Path_64" data-name="Path 64" d="M928.823,720.951l-62.5,41.334-.523-.79a29.167,29.167,0,0,1,8.237-40.415h0l38.173-25.245Z" transform="translate(249.442 308.697)" fill="#090f26"/>
      <path id="Path_65" data-name="Path 65" d="M496.631,595.465H473.392l-11.055-89.637,34.3,0Z" transform="translate(414.043 452.991)" fill="#9e616a"/>
      <path id="Path_66" data-name="Path 66" d="M794.12,745.118l-74.932,0v-.948A29.167,29.167,0,0,1,748.351,715h0l45.766,0Z" transform="translate(122.482 325.864)" fill="#090f26"/>
      <path id="Path_67" data-name="Path 67" d="M725.879,432.65l-87.743-62.677a17.055,17.055,0,1,0-20.486,14.687c10.968,9.209,91.077,88.879,102.547,84.676,11.642-4.265,62.54-11.986,62.54-11.986l1.417-48.327Z" transform="translate(19.452 -0.187)" fill="#9e616a"/>
      <path id="Path_68" data-name="Path 68" d="M704.733,459.943l.828,110.279s18.988,163.4,25.992,191,35.431,155.332,35.431,155.332l46.211-7.455L783.435,742.106l9-138.407L844.3,742.411,976.012,880.09l33.381-26.935L894.749,684.677,859.733,546.661s4.356-71.387-34.88-98.878Z" transform="translate(109.537 86.558)" fill="#060c23"/>
      <circle id="Ellipse_18" data-name="Ellipse 18" cx="50.65" cy="50.65" r="50.65" transform="translate(790.164 202.699)" fill="#9e616a"/>
      <rect id="Rectangle_7" data-name="Rectangle 7" width="46.046" height="59.86" transform="translate(835.168 606.321) rotate(-65.867)" fill="#2f2e41"/>
      <path id="Path_69" data-name="Path 69" d="M593.233,362.657" transform="translate(9.684 10.324)" fill="#6c63ff"/>
      <path id="Path_70" data-name="Path 70" d="M819.914,365.72c-5.969-11.879-8.869-26.555-21.594-30.406-8.593-2.6-43.348,1.3-51.18,5.687-13.027,7.3-1.222,20.986-8.907,33.791l-25.064,41.761c-5.744,9.57-11.547,19.276-14.653,30s-3.255,22.752,2.036,32.58c4.735,8.8,13.312,15.035,18.074,23.816,4.952,9.133-3.937,49.912-8.546,59.223l2.212,1.022a498.7,498.7,0,0,0,91.835-3.09c7.558-.957,15.406-2.207,21.634-6.595,9.174-6.462,12.8-18.188,15.068-29.179A245.808,245.808,0,0,0,819.914,365.72Z" transform="translate(102.025 -14.913)" fill="#e4e4e4"/>
      <path id="Path_71" data-name="Path 71" d="M725.059,471.147c13.722-13.486,27.515-27.053,38.811-42.628s20.081-33.4,22.533-52.485a38.875,38.875,0,0,0-1.216-18.235c-2.105-5.779-6.765-10.909-12.773-12.228-9.614-2.111-18.354,5.562-25.215,12.62l-60.685,62.432,38.656,50.883Z" transform="translate(93.221 -5.296)" fill="#e4e4e4"/>
      <path id="Path_72" data-name="Path 72" d="M842.719,447.347c-4.265-11.641-11.986-62.54-11.986-62.54l-48.327-1.417,23.627,58.275-64.474,90.258s.119.2.337.552a17.051,17.051,0,1,0,14.3,18.12,1.177,1.177,0,0,0,1.478-.254C764.848,541.34,846.984,458.99,842.719,447.347Z" transform="translate(125.128 28.891)" fill="#9e616a"/>
      <path id="Path_73" data-name="Path 73" d="M829.7,452.393c-4.436-18.722-8.9-37.545-16.383-55.272s-18.185-34.471-33.242-46.447a38.875,38.875,0,0,0-16.232-8.4c-6.034-1.191-12.836.142-17.074,4.6-6.782,7.133-4.742,18.583-2.254,28.107l22,84.239,63.545-6.736Z" transform="translate(143.06 -8.299)" fill="#e4e4e4"/>
      <path id="Path_74" data-name="Path 74" d="M806.158,335.8c-1.584-12.253-3.238-24.608-6.958-36.146s-9.717-22.344-18.319-28.88c-13.62-10.348-31.254-8.352-46.524-2.4-11.809,4.6-23.337,11.6-31.665,22.848s-13.005,27.3-9.908,42.005l48.866-13.6-1.783,1.484c10.57,5.956,18.6,18.28,21,32.233a54.437,54.437,0,0,1-8.6,39.878L785.592,379.3c6.857-2.865,14.2-6.167,18.262-13.516C808.569,357.262,807.474,345.968,806.158,335.8Z" transform="translate(97.976 -78.51)" fill="#2f2e41"/>
      <path id="Path_75" data-name="Path 75" d="M648.759,349.779l-32.583,48.9a8.53,8.53,0,0,1-14.957-1.43,7.828,7.828,0,0,1-.509-1.624,8.552,8.552,0,0,1,1.269-6.406l32.583-48.9a8.53,8.53,0,1,1,14.2,9.46Z" transform="translate(16.233 -13.085)" fill="#6c63ff"/>
      <path id="Path_76" data-name="Path 76" d="M622.455,371.7l-6.6,9.84-11.67,10.287a4.646,4.646,0,0,1-7.473-4.98l5.108-14.952,6.433-9.654Z" transform="translate(12.582 9.952)" fill="#3f3d56"/>
      <path id="Path_77" data-name="Path 77" d="M637.133,330.533,620.8,344.926a4.648,4.648,0,0,0,.5,7.356l3.089,2.059-8.934,13.408a1.9,1.9,0,1,0,3.155,2.1l8.934-13.408,3.089,2.059a4.639,4.639,0,0,0,6.98-2.375l6.995-20.612a4.649,4.649,0,0,0-7.476-4.981Z" transform="translate(29.3 -19.484)" fill="#3f3d56"/>
      <path id="Path_78" data-name="Path 78" d="M1504.393,735.132H277.419a2.257,2.257,0,1,1,0-4.514H1504.393a2.257,2.257,0,1,1,0,4.514Z" transform="translate(-275.162 339.849)" fill="#3f3d56"/>
      <path id="Path_79" data-name="Path 79" d="M542.946,191h-51.18a3.791,3.791,0,0,1,0-7.582h51.18a3.791,3.791,0,0,1,0,7.582Z" transform="translate(-84.579 -150.193)" fill="#fff"/>
      <circle id="Ellipse_19" data-name="Ellipse 19" cx="3.791" cy="3.791" r="3.791" transform="translate(480.166 33.226)" fill="#fff"/>
    </g>
  </g>
</svg>
